<svg width="22" height="22" viewBox="0 0 22 22" fill="none" xmlns="http://www.w3.org/2000/svg">
<path d="M20.7544 19.0246V11.2947C20.7544 10.7569 20.6447 10.2248 20.4319 9.73086C20.2191 9.23697 19.9077 8.79172 19.5168 8.42239L12.2343 1.53997C11.8675 1.19321 11.3819 1 10.8772 1C10.3724 1 9.88684 1.19321 9.52006 1.53997L2.23761 8.42239C1.8467 8.79172 1.5353 9.23697 1.32249 9.73086C1.10968 10.2248 0.999943 10.7569 1 11.2947V19.0246C1 19.5485 1.20813 20.0509 1.57859 20.4214C1.94906 20.7919 2.45152 21 2.97544 21H18.7789C19.3028 21 19.8053 20.7919 20.1758 20.4214C20.5462 20.0509 20.7544 19.5485 20.7544 19.0246Z" stroke="#CCCED8" stroke-width="2" stroke-linecap="round" stroke-linejoin="round"/>
</svg>
