<svg width="20" height="20" viewBox="0 0 20 20" fill="none" xmlns="http://www.w3.org/2000/svg">
<path d="M13.5714 7.14284V5.71427H10.7143V3.57141H9.28573V5.71427H7.85716C7.4784 5.71465 7.11525 5.86528 6.84743 6.1331C6.5796 6.40093 6.42897 6.76407 6.42859 7.14284V9.2857C6.42897 9.66446 6.5796 10.0276 6.84743 10.2954C7.11525 10.5633 7.4784 10.7139 7.85716 10.7143H12.1429V12.8571H6.42859V14.2857H9.28573V16.4286H10.7143V14.2857H12.1429C12.5216 14.2853 12.8848 14.1347 13.1526 13.8669C13.4204 13.599 13.5711 13.2359 13.5714 12.8571V10.7143C13.5711 10.3355 13.4204 9.97236 13.1526 9.70453C12.8848 9.43671 12.5216 9.28607 12.1429 9.2857H7.85716V7.14284H13.5714Z" fill="#CCCED8"/>
<path d="M10 1.42857C11.6953 1.42857 13.3525 1.93128 14.762 2.87312C16.1716 3.81496 17.2702 5.15363 17.919 6.71985C18.5677 8.28608 18.7375 10.0095 18.4067 11.6722C18.076 13.3349 17.2597 14.8622 16.0609 16.0609C14.8622 17.2596 13.3349 18.076 11.6722 18.4067C10.0095 18.7375 8.28608 18.5677 6.71986 17.919C5.15364 17.2702 3.81496 16.1716 2.87312 14.762C1.93128 13.3525 1.42858 11.6953 1.42858 10C1.43517 7.72874 2.34035 5.5524 3.94637 3.94637C5.5524 2.34034 7.72875 1.43517 10 1.42857ZM10 0C8.02219 0 6.08879 0.58649 4.4443 1.6853C2.79981 2.78412 1.51809 4.3459 0.761209 6.17316C0.00433283 8.00043 -0.1937 10.0111 0.192152 11.9509C0.578004 13.8907 1.53041 15.6725 2.92894 17.0711C4.32746 18.4696 6.10929 19.422 8.0491 19.8078C9.98891 20.1937 11.9996 19.9957 13.8268 19.2388C15.6541 18.4819 17.2159 17.2002 18.3147 15.5557C19.4135 13.9112 20 11.9778 20 10C19.9923 7.35021 18.9362 4.81116 17.0625 2.93747C15.1888 1.06378 12.6498 0.0077262 10 0Z" fill="#CCCED8"/>
</svg>
