<svg width="19" height="20" viewBox="0 0 19 20" fill="none" xmlns="http://www.w3.org/2000/svg">
<path d="M4.61738 0C2.92892 0 1.69661 1.23462 0.987383 2.69231C0.278921 4.15 -0.0280022 5.90769 0.00199776 7.45231C0.0381516 9.24615 0.81969 11.0577 0.81969 11.0577L1.03507 11.5385H7.502L7.67046 10.9615C7.67046 10.9615 8.27738 8.69923 8.43969 6.53846C8.50277 5.68846 8.47584 4.21 8.00661 2.81231C7.77277 2.11231 7.43277 1.42769 6.87661 0.889231C6.322 0.351539 5.53123 0 4.61738 0ZM13.8482 0C12.9343 0 12.1443 0.351539 11.5882 0.889231C11.0328 1.42769 10.6928 2.11231 10.4589 2.81231C9.98969 4.21 9.96277 5.68846 10.0258 6.53846C10.1882 8.69923 10.7951 10.9615 10.7951 10.9615L10.9635 11.5385H17.4297L17.6466 11.0577C17.6466 11.0577 18.4274 9.24615 18.4635 7.45154C18.4943 5.90769 18.1866 4.15 17.4782 2.69231C16.7689 1.23462 15.5366 0 13.8482 0ZM4.61738 1.53846C5.15815 1.53846 5.48584 1.69462 5.79507 1.99538C6.10507 2.29538 6.38123 2.77308 6.56431 3.31692C6.92815 4.40538 6.97277 5.79 6.92507 6.44231C6.79892 8.11615 6.39892 9.51615 6.27584 10H2.09431C1.90815 9.47385 1.562 8.44923 1.54123 7.42769C1.51431 6.12385 1.81431 4.53462 2.38277 3.36538C2.94969 2.19615 3.67123 1.53846 4.61738 1.53846ZM13.8482 1.53846C14.7943 1.53846 15.5158 2.19615 16.0835 3.36538C16.652 4.53462 16.9489 6.12385 16.9251 7.42769C16.9043 8.44923 16.5582 9.47385 16.372 10H12.1897C12.0666 9.51615 11.6666 8.11539 11.5405 6.44231C11.492 5.79 11.5374 4.40538 11.9012 3.31692C12.0843 2.77308 12.3605 2.29538 12.6705 1.99538C12.9789 1.69538 13.3074 1.53846 13.8482 1.53846ZM0.771229 13.8462V14.6154C0.761998 15.6762 0.864306 16.9138 1.39661 18.0046C1.92661 19.0954 3.04584 20 4.61738 20C6.35738 20 7.67892 18.2962 7.69431 16.1538C7.69738 15.6577 7.67661 15.0754 7.502 14.4231L7.35738 13.8462H0.771229ZM11.1082 13.8462L10.9635 14.4231C10.7889 15.0754 10.7682 15.6577 10.7712 16.1538C10.7866 18.2962 12.1082 20 13.8482 20C15.4197 20 16.5374 19.0954 17.0697 18.0046C17.6005 16.9138 17.7035 15.6762 17.6943 14.6154V13.8462H11.1082ZM2.42892 15.3846H6.08277C6.10969 15.6369 6.15815 15.8954 6.15507 16.1538C6.14277 17.71 5.332 18.4615 4.61661 18.4615C3.55584 18.4615 3.11661 18.05 2.76584 17.3315C2.51354 16.8177 2.48354 16.0785 2.42892 15.3846ZM12.3812 15.3846H16.0351C15.9812 16.0785 15.9505 16.8177 15.6982 17.3315C15.3482 18.05 14.9097 18.4615 13.8482 18.4615C13.1328 18.4615 12.322 17.71 12.3097 16.1538C12.3066 15.8954 12.3551 15.6369 12.382 15.3846H12.3812Z" fill="#CCCED8"/>
</svg>
