<svg width="20" height="20" viewBox="0 0 20 20" fill="none" xmlns="http://www.w3.org/2000/svg">
<path d="M8.2569 8.98877C7.36799 8.98877 6.49905 8.72517 5.75995 8.23133C5.02085 7.73748 4.4448 7.03555 4.10463 6.21431C3.76446 5.39307 3.67546 4.4894 3.84887 3.61757C4.02229 2.74575 4.45034 1.94493 5.07889 1.31638C5.70744 0.687825 6.50826 0.259777 7.38009 0.0863603C8.25191 -0.0870564 9.15558 0.00194734 9.97682 0.342116C10.7981 0.682285 11.5 1.25834 11.9938 1.99744C12.4877 2.73654 12.7513 3.60548 12.7513 4.49438C12.7513 5.68637 12.2778 6.82953 11.4349 7.67239C10.592 8.51525 9.44888 8.98877 8.2569 8.98877ZM8.2569 1.33548C7.62196 1.33548 7.00129 1.52375 6.47336 1.8765C5.94544 2.22925 5.53397 2.73063 5.29099 3.31723C5.04801 3.90383 4.98444 4.54931 5.10831 5.17204C5.23218 5.79477 5.53793 6.36679 5.98689 6.81575C6.43586 7.26472 7.00787 7.57047 7.6306 7.69434C8.25333 7.8182 8.89881 7.75463 9.48541 7.51165C10.072 7.26867 10.5734 6.85721 10.9261 6.32928C11.2789 5.80135 11.4672 5.18068 11.4672 4.54575C11.4672 4.12417 11.3841 3.70672 11.2228 3.31723C11.0615 2.92774 10.825 2.57384 10.5269 2.27574C10.2288 1.97764 9.8749 1.74117 9.48541 1.57984C9.09593 1.41851 8.67847 1.33548 8.2569 1.33548Z" fill="#CCCED8"/>
<path d="M11.8331 9.76568C8.35856 8.98383 4.72363 9.36041 1.48317 10.8379C1.03751 11.0508 0.661506 11.3859 0.39893 11.8042C0.136353 12.2225 -0.00198588 12.7068 2.15405e-05 13.2007V17.0209C2.15387e-05 17.1052 0.0166289 17.1887 0.0488951 17.2666C0.0811614 17.3445 0.128455 17.4153 0.188075 17.4749C0.247695 17.5345 0.318475 17.5818 0.396372 17.6141C0.47427 17.6463 0.55776 17.6629 0.642076 17.6629C0.726392 17.6629 0.809882 17.6463 0.88778 17.6141C0.965677 17.5818 1.03646 17.5345 1.09608 17.4749C1.1557 17.4153 1.20299 17.3445 1.23526 17.2666C1.26752 17.1887 1.28413 17.1052 1.28413 17.0209V13.2007C1.27854 12.9507 1.34604 12.7046 1.47834 12.4924C1.61064 12.2803 1.80199 12.1114 2.02891 12.0064C3.98093 11.1051 6.10681 10.6427 8.25684 10.6517C9.46154 10.6502 10.6621 10.7924 11.8331 11.0755V9.76568Z" fill="#CCCED8"/>
<path d="M11.923 15.8716H15.8652V16.7705H11.923V15.8716Z" fill="#CCCED8"/>
<path d="M19.0048 12.0578H15.6854V13.3419H18.3627V18.7159H9.26482V13.3419H13.3098V13.6116C13.3098 13.7819 13.3774 13.9452 13.4978 14.0656C13.6182 14.186 13.7815 14.2536 13.9518 14.2536C14.1221 14.2536 14.2854 14.186 14.4058 14.0656C14.5262 13.9452 14.5939 13.7819 14.5939 13.6116V11.114C14.5939 10.9437 14.5262 10.7804 14.4058 10.66C14.2854 10.5396 14.1221 10.4719 13.9518 10.4719C13.7815 10.4719 13.6182 10.5396 13.4978 10.66C13.3774 10.7804 13.3098 10.9437 13.3098 11.114V12.0578H8.62277C8.45248 12.0578 8.28917 12.1254 8.16877 12.2459C8.04836 12.3663 7.98071 12.5296 7.98071 12.6999V19.358C7.98071 19.5282 8.04836 19.6916 8.16877 19.812C8.28917 19.9324 8.45248 20 8.62277 20H19.0048C19.1751 20 19.3384 19.9324 19.4588 19.812C19.5792 19.6916 19.6468 19.5282 19.6468 19.358V12.6999C19.6468 12.5296 19.5792 12.3663 19.4588 12.2459C19.3384 12.1254 19.1751 12.0578 19.0048 12.0578Z" fill="#CCCED8"/>
</svg>
